<mxfile host="app.diagrams.net" modified="2020-11-11T12:58:38.557Z" agent="5.0 (X11)" etag="q7o_Fe9aCSASQWWHb24H" version="13.8.8" type="github">
  <diagram id="hZDSW_HOKCULCPWgvv6r" name="Page-1">
    <mxGraphModel dx="1354" dy="783" grid="1" gridSize="10" guides="1" tooltips="1" connect="1" arrows="1" fold="1" page="1" pageScale="1" pageWidth="850" pageHeight="1400" math="1" shadow="0">
      <root>
        <mxCell id="0" />
        <mxCell id="1" parent="0" />
        <mxCell id="rDQ6EAycthC4kisG_Dc3-84" value="" style="shape=table;html=1;whiteSpace=wrap;startSize=0;container=1;collapsible=0;childLayout=tableLayout;rounded=0;shadow=0;sketch=0;fillColor=#e1d5e7;strokeColor=#9673a6;" parent="1" vertex="1">
          <mxGeometry x="260" y="280" width="220" height="220" as="geometry" />
        </mxCell>
        <mxCell id="rDQ6EAycthC4kisG_Dc3-85" value="" style="shape=partialRectangle;html=1;whiteSpace=wrap;collapsible=0;dropTarget=0;pointerEvents=0;fillColor=none;top=0;left=0;bottom=0;right=0;points=[[0,0.5],[1,0.5]];portConstraint=eastwest;" parent="rDQ6EAycthC4kisG_Dc3-84" vertex="1">
          <mxGeometry width="220" height="44" as="geometry" />
        </mxCell>
        <mxCell id="rDQ6EAycthC4kisG_Dc3-86" style="shape=partialRectangle;html=1;whiteSpace=wrap;connectable=0;fillColor=#cdeb8b;top=0;left=0;bottom=0;right=0;overflow=hidden;strokeColor=#36393d;" parent="rDQ6EAycthC4kisG_Dc3-85" vertex="1">
          <mxGeometry width="55" height="44" as="geometry" />
        </mxCell>
        <mxCell id="rDQ6EAycthC4kisG_Dc3-87" value="" style="shape=partialRectangle;html=1;whiteSpace=wrap;connectable=0;top=0;left=0;bottom=0;right=0;overflow=hidden;strokeColor=#82b366;fillColor=#A6B5A5;" parent="rDQ6EAycthC4kisG_Dc3-85" vertex="1">
          <mxGeometry x="55" width="55" height="44" as="geometry" />
        </mxCell>
        <mxCell id="rDQ6EAycthC4kisG_Dc3-88" value="" style="shape=partialRectangle;html=1;whiteSpace=wrap;connectable=0;top=0;left=0;bottom=0;right=0;overflow=hidden;strokeColor=#36393d;fillColor=#556139;strokeWidth=1;shadow=0;sketch=1;" parent="rDQ6EAycthC4kisG_Dc3-85" vertex="1">
          <mxGeometry x="110" width="55" height="44" as="geometry" />
        </mxCell>
        <mxCell id="rDQ6EAycthC4kisG_Dc3-89" value="" style="shape=partialRectangle;html=1;whiteSpace=wrap;connectable=0;top=0;left=0;bottom=0;right=0;overflow=hidden;strokeColor=#6D1F00;fontColor=#ffffff;fillColor=#666666;strokeWidth=1;shadow=0;sketch=1;" parent="rDQ6EAycthC4kisG_Dc3-85" vertex="1">
          <mxGeometry x="165" width="55" height="44" as="geometry" />
        </mxCell>
        <mxCell id="rDQ6EAycthC4kisG_Dc3-90" value="" style="shape=partialRectangle;html=1;whiteSpace=wrap;collapsible=0;dropTarget=0;pointerEvents=0;fillColor=none;top=0;left=0;bottom=0;right=0;points=[[0,0.5],[1,0.5]];portConstraint=eastwest;" parent="rDQ6EAycthC4kisG_Dc3-84" vertex="1">
          <mxGeometry y="44" width="220" height="44" as="geometry" />
        </mxCell>
        <mxCell id="rDQ6EAycthC4kisG_Dc3-91" style="shape=partialRectangle;html=1;whiteSpace=wrap;connectable=0;fillColor=#ffe6cc;top=0;left=0;bottom=0;right=0;overflow=hidden;strokeColor=#d79b00;" parent="rDQ6EAycthC4kisG_Dc3-90" vertex="1">
          <mxGeometry width="55" height="44" as="geometry" />
        </mxCell>
        <mxCell id="rDQ6EAycthC4kisG_Dc3-92" value="" style="shape=partialRectangle;html=1;whiteSpace=wrap;connectable=0;fillColor=#ffe6cc;top=0;left=0;bottom=0;right=0;overflow=hidden;strokeColor=#d79b00;" parent="rDQ6EAycthC4kisG_Dc3-90" vertex="1">
          <mxGeometry x="55" width="55" height="44" as="geometry" />
        </mxCell>
        <mxCell id="rDQ6EAycthC4kisG_Dc3-93" value="" style="shape=partialRectangle;html=1;whiteSpace=wrap;connectable=0;fillColor=#ffe6cc;top=0;left=0;bottom=0;right=0;overflow=hidden;strokeColor=#d79b00;" parent="rDQ6EAycthC4kisG_Dc3-90" vertex="1">
          <mxGeometry x="110" width="55" height="44" as="geometry" />
        </mxCell>
        <mxCell id="rDQ6EAycthC4kisG_Dc3-94" value="" style="shape=partialRectangle;html=1;whiteSpace=wrap;connectable=0;fillColor=#f0a30a;top=0;left=0;bottom=0;right=0;overflow=hidden;strokeColor=#BD7000;fontColor=#ffffff;" parent="rDQ6EAycthC4kisG_Dc3-90" vertex="1">
          <mxGeometry x="165" width="55" height="44" as="geometry" />
        </mxCell>
        <mxCell id="rDQ6EAycthC4kisG_Dc3-95" value="" style="shape=partialRectangle;html=1;whiteSpace=wrap;collapsible=0;dropTarget=0;pointerEvents=0;fillColor=none;top=0;left=0;bottom=0;right=0;points=[[0,0.5],[1,0.5]];portConstraint=eastwest;" parent="rDQ6EAycthC4kisG_Dc3-84" vertex="1">
          <mxGeometry y="88" width="220" height="44" as="geometry" />
        </mxCell>
        <mxCell id="rDQ6EAycthC4kisG_Dc3-96" style="shape=partialRectangle;html=1;whiteSpace=wrap;connectable=0;fillColor=#fff2cc;top=0;left=0;bottom=0;right=0;overflow=hidden;strokeColor=#d6b656;" parent="rDQ6EAycthC4kisG_Dc3-95" vertex="1">
          <mxGeometry width="55" height="44" as="geometry" />
        </mxCell>
        <mxCell id="rDQ6EAycthC4kisG_Dc3-97" value="" style="shape=partialRectangle;html=1;whiteSpace=wrap;connectable=0;fillColor=#fff2cc;top=0;left=0;bottom=0;right=0;overflow=hidden;strokeColor=#d6b656;" parent="rDQ6EAycthC4kisG_Dc3-95" vertex="1">
          <mxGeometry x="55" width="55" height="44" as="geometry" />
        </mxCell>
        <mxCell id="rDQ6EAycthC4kisG_Dc3-98" value="" style="shape=partialRectangle;html=1;whiteSpace=wrap;connectable=0;fillColor=#fff2cc;top=0;left=0;bottom=0;right=0;overflow=hidden;strokeColor=#d6b656;" parent="rDQ6EAycthC4kisG_Dc3-95" vertex="1">
          <mxGeometry x="110" width="55" height="44" as="geometry" />
        </mxCell>
        <mxCell id="rDQ6EAycthC4kisG_Dc3-99" value="" style="shape=partialRectangle;html=1;whiteSpace=wrap;connectable=0;fillColor=#e3c800;top=0;left=0;bottom=0;right=0;overflow=hidden;strokeColor=#B09500;fontColor=#ffffff;" parent="rDQ6EAycthC4kisG_Dc3-95" vertex="1">
          <mxGeometry x="165" width="55" height="44" as="geometry" />
        </mxCell>
        <mxCell id="rDQ6EAycthC4kisG_Dc3-100" style="shape=partialRectangle;html=1;whiteSpace=wrap;collapsible=0;dropTarget=0;pointerEvents=0;fillColor=none;top=0;left=0;bottom=0;right=0;points=[[0,0.5],[1,0.5]];portConstraint=eastwest;" parent="rDQ6EAycthC4kisG_Dc3-84" vertex="1">
          <mxGeometry y="132" width="220" height="44" as="geometry" />
        </mxCell>
        <mxCell id="rDQ6EAycthC4kisG_Dc3-101" style="shape=partialRectangle;html=1;whiteSpace=wrap;connectable=0;fillColor=#6a00ff;top=0;left=0;bottom=0;right=0;overflow=hidden;strokeColor=#3700CC;fontColor=#ffffff;" parent="rDQ6EAycthC4kisG_Dc3-100" vertex="1">
          <mxGeometry width="55" height="44" as="geometry" />
        </mxCell>
        <mxCell id="rDQ6EAycthC4kisG_Dc3-102" style="shape=partialRectangle;html=1;whiteSpace=wrap;connectable=0;top=0;left=0;bottom=0;right=0;overflow=hidden;strokeColor=#9673a6;fillColor=#FFCCFF;" parent="rDQ6EAycthC4kisG_Dc3-100" vertex="1">
          <mxGeometry x="55" width="55" height="44" as="geometry" />
        </mxCell>
        <mxCell id="rDQ6EAycthC4kisG_Dc3-103" style="shape=partialRectangle;html=1;whiteSpace=wrap;connectable=0;top=0;left=0;bottom=0;right=0;overflow=hidden;strokeColor=#9673a6;fillColor=#FFCCFF;" parent="rDQ6EAycthC4kisG_Dc3-100" vertex="1">
          <mxGeometry x="110" width="55" height="44" as="geometry" />
        </mxCell>
        <mxCell id="rDQ6EAycthC4kisG_Dc3-104" style="shape=partialRectangle;html=1;whiteSpace=wrap;connectable=0;top=0;left=0;bottom=0;right=0;overflow=hidden;strokeColor=#9673a6;fillColor=#FFCCFF;" parent="rDQ6EAycthC4kisG_Dc3-100" vertex="1">
          <mxGeometry x="165" width="55" height="44" as="geometry" />
        </mxCell>
        <mxCell id="rDQ6EAycthC4kisG_Dc3-105" style="shape=partialRectangle;html=1;whiteSpace=wrap;collapsible=0;dropTarget=0;pointerEvents=0;fillColor=none;top=0;left=0;bottom=0;right=0;points=[[0,0.5],[1,0.5]];portConstraint=eastwest;" parent="rDQ6EAycthC4kisG_Dc3-84" vertex="1">
          <mxGeometry y="176" width="220" height="44" as="geometry" />
        </mxCell>
        <mxCell id="rDQ6EAycthC4kisG_Dc3-106" style="shape=partialRectangle;html=1;whiteSpace=wrap;connectable=0;fillColor=#dae8fc;top=0;left=0;bottom=0;right=0;overflow=hidden;strokeColor=#6c8ebf;" parent="rDQ6EAycthC4kisG_Dc3-105" vertex="1">
          <mxGeometry width="55" height="44" as="geometry" />
        </mxCell>
        <mxCell id="rDQ6EAycthC4kisG_Dc3-107" style="shape=partialRectangle;html=1;whiteSpace=wrap;connectable=0;fillColor=#dae8fc;top=0;left=0;bottom=0;right=0;overflow=hidden;strokeColor=#6c8ebf;" parent="rDQ6EAycthC4kisG_Dc3-105" vertex="1">
          <mxGeometry x="55" width="55" height="44" as="geometry" />
        </mxCell>
        <mxCell id="rDQ6EAycthC4kisG_Dc3-108" style="shape=partialRectangle;html=1;whiteSpace=wrap;connectable=0;fillColor=#dae8fc;top=0;left=0;bottom=0;right=0;overflow=hidden;strokeColor=#6c8ebf;" parent="rDQ6EAycthC4kisG_Dc3-105" vertex="1">
          <mxGeometry x="110" width="55" height="44" as="geometry" />
        </mxCell>
        <mxCell id="rDQ6EAycthC4kisG_Dc3-109" style="shape=partialRectangle;html=1;whiteSpace=wrap;connectable=0;fillColor=#1ba1e2;top=0;left=0;bottom=0;right=0;overflow=hidden;strokeColor=#006EAF;fontColor=#ffffff;" parent="rDQ6EAycthC4kisG_Dc3-105" vertex="1">
          <mxGeometry x="165" width="55" height="44" as="geometry" />
        </mxCell>
      </root>
    </mxGraphModel>
  </diagram>
</mxfile>
